# xmcd
#
# Track frame offsets:
#	150
#	15073
#	31849
#	42860
#	63215
#	87935
#	106042
#	117886
#	129123
#	153648
#
# Disc length: 2214 seconds
# Revision: 0
# Processed by: cddbd v1.5.2PL0 Copyright (c) Steve Scherf et al.
# Submitted via: dBpowerAMP V12.0
#
DISCID=6408a40a
DTITLE=Josh White - Empty Bed Blues
DYEAR=2014
DGENRE=Blues
TTITLE0=Empty Bed Blues
TTITLE1=Mother On That Train
TTITLE2=Bottle Up And Go
TTITLE3=Backwater Blues
TTITLE4=Baby Baby Blues
TTITLE5=Lord Have Mercy
TTITLE6=Home In That Rock
TTITLE7=Paul And Silas
TTITLE8=His Eyes Is On The Sparrow
TTITLE9=That Suits Me
EXTD=
EXTT0=
EXTT1=
EXTT2=
EXTT3=
EXTT4=
EXTT5=
EXTT6=
EXTT7=
EXTT8=
EXTT9=
PLAYORDER=
